<svg xmlns="http://www.w3.org/2000/svg" x="0px" y="0px"
	 width="100%" viewBox="0 0 1833 248"  >
<path fill="#FCFCFC" opacity="1.000000" stroke="none"
	d="
M1376.000000,249.000000
	C917.388306,249.000000 459.276550,249.000000 1.082418,249.000000
	C1.082418,166.398270 1.082418,83.796425 1.082418,1.097289
	C612.000000,1.097289 1223.000000,1.097289 1833.972168,1.097289
	C1833.972168,83.723701 1833.972168,166.361862 1833.972168,249.000000
	C1681.462769,249.000000 1528.981445,249.000000 1376.000000,249.000000
M732.598877,94.170319
	C729.306274,78.469727 721.544434,71.195282 706.262207,69.320869
	C692.103699,67.584274 680.430542,71.962662 671.756836,83.912544
	C665.752319,72.474007 656.187195,68.976669 644.795593,69.010338
	C633.347473,69.044167 624.196289,73.948486 616.270020,84.157097
	C616.270020,78.896767 616.270020,75.318054 616.270020,71.834351
	C608.163391,71.834351 600.595642,71.834351 592.886719,71.834351
	C592.886719,101.962639 592.886719,131.737610 592.886719,161.712860
	C601.259888,161.712860 609.474915,161.712860 617.957031,161.712860
	C617.957031,159.621063 617.954773,157.812134 617.957336,156.003189
	C617.980713,139.674179 617.793640,123.341148 618.103210,107.017548
	C618.308105,96.216209 625.704041,88.804794 635.337280,88.874504
	C645.627197,88.948967 649.858948,93.742691 650.056824,106.433159
	C650.295776,121.759026 650.159546,137.090759 650.183716,152.419952
	C650.188599,155.526093 650.184387,158.632217 650.184387,161.802612
	C658.893372,161.802612 666.998352,161.802612 675.572449,161.802612
	C675.572449,159.976120 675.572449,158.347687 675.572449,156.719254
	C675.572205,142.389404 675.451721,128.057983 675.640991,113.730637
	C675.702087,109.109718 675.970459,104.328224 677.212769,99.921494
	C679.536011,91.680344 685.750977,88.170898 694.946045,88.962410
	C702.403992,89.604378 705.975830,93.314499 707.270508,102.120323
	C707.728638,105.236526 707.898865,108.419159 707.911926,111.572639
	C707.975220,126.901978 707.933838,142.231735 707.951660,157.561310
	C707.953308,158.988251 708.109863,160.415009 708.187561,161.725082
	C716.674622,161.725082 724.760376,161.725082 732.756897,161.725082
	C732.756897,139.312836 732.756897,117.180618 732.598877,94.170319
M429.356750,135.900757
	C412.896667,148.097946 389.390808,142.138885 381.177948,123.159470
	C374.541168,107.822205 374.557373,91.901566 381.099457,76.557762
	C389.740326,56.291512 415.777710,50.585117 431.277557,65.445244
	C434.944946,68.961266 437.078125,74.077530 440.113434,78.760666
	C448.100525,78.760666 456.875214,78.760666 465.728027,78.760666
	C464.634125,70.318993 462.150024,62.700092 457.318604,55.867489
	C440.300110,31.799904 406.292114,29.094849 383.771423,39.507957
	C342.364136,58.653858 341.958801,112.915230 359.276978,138.620972
	C372.392639,158.088882 391.320618,165.399887 414.166046,165.070419
	C442.714050,164.658722 465.482056,142.857880 466.558685,114.173203
	C457.764587,114.173203 448.976196,114.173203 439.968628,114.173203
	C438.522552,122.184303 436.097290,129.722687 429.356750,135.900757
M1185.162476,148.493866
	C1185.162476,138.215637 1185.162476,127.937408 1185.162476,117.172447
	C1192.789795,117.172447 1199.909912,117.310982 1207.021851,117.131584
	C1213.498413,116.968208 1220.041992,116.964943 1226.424072,116.009422
	C1246.247437,113.041481 1258.872070,97.280891 1258.476807,76.595520
	C1258.073242,55.472771 1245.431885,39.567387 1225.404419,38.240784
	C1203.022339,36.758209 1180.497437,37.431709 1158.034546,37.180656
	C1157.914429,37.179314 1157.792236,37.374382 1157.490234,37.631737
	C1157.490234,78.857903 1157.490234,120.237839 1157.490234,161.714645
	C1166.817749,161.714645 1175.881714,161.714645 1185.162964,161.714645
	C1185.162964,157.448746 1185.162964,153.470245 1185.162476,148.493866
M753.038025,73.899345
	C753.038025,113.835030 753.038025,153.770706 753.038025,193.787384
	C761.669312,193.787384 769.764465,193.787384 778.431396,193.787384
	C778.431396,179.740631 778.431396,165.901276 778.431396,151.511154
	C801.831360,174.762939 835.761841,165.583984 844.412109,134.347885
	C847.790649,122.147964 847.318665,109.894318 843.726807,97.878708
	C841.362427,89.969528 837.168274,82.947044 830.524109,77.717285
	C813.632568,64.421638 793.786926,66.063309 777.033142,82.473389
	C777.033142,78.679054 777.033142,75.285614 777.033142,71.523499
	C769.312622,71.523499 762.007263,71.491936 754.703613,71.586296
	C754.148376,71.593483 753.604675,72.493698 753.038025,73.899345
M1506.037354,71.495628
	C1498.760986,71.495628 1491.484741,71.495628 1484.326172,71.495628
	C1484.326172,112.681541 1484.326172,153.257065 1484.326172,193.732117
	C1492.755493,193.732117 1500.852905,193.732117 1509.392822,193.732117
	C1509.392822,179.614243 1509.392822,165.763245 1509.392822,151.312317
	C1524.649292,172.089478 1563.931030,169.861526 1574.618896,136.955872
	C1578.954346,123.607780 1578.731812,109.997818 1574.200195,96.703857
	C1567.094238,75.858093 1548.320190,65.467422 1526.871216,70.034439
	C1519.095459,71.690086 1513.328125,76.319359 1508.600952,82.348763
	C1508.009766,78.488937 1507.479004,75.022934 1506.037354,71.495628
M1634.090698,116.564919
	C1634.321777,132.321320 1639.063965,146.153534 1652.191772,155.792007
	C1662.751587,163.545074 1674.961548,165.074188 1687.809814,164.115814
	C1704.835205,162.845886 1719.336426,151.086929 1723.739014,133.998749
	C1717.037720,133.998749 1710.427612,133.911835 1703.824707,134.091705
	C1702.824585,134.118942 1701.586670,135.189651 1700.918701,136.111084
	C1694.709351,144.677002 1684.148682,148.039337 1673.373047,144.757950
	C1664.612427,142.090149 1659.979736,134.804199 1659.743164,122.797745
	C1681.637817,122.797745 1703.528687,122.797745 1726.207153,122.797745
	C1725.735718,117.120697 1725.594116,111.995689 1724.844727,106.961128
	C1720.946411,80.770515 1697.783569,64.657478 1671.828003,69.936134
	C1649.244385,74.529060 1635.702881,90.942184 1634.090698,116.564919
M904.971375,131.399948
	C907.463196,140.245651 911.628052,148.188324 918.893372,153.951721
	C933.405029,165.463547 949.910950,166.874969 967.067078,161.858444
	C980.802734,157.842056 988.457825,147.549423 993.178589,133.995163
	C986.215942,133.995163 979.762329,133.891037 973.318237,134.091080
	C972.157043,134.127106 970.682678,135.158539 969.949707,136.165054
	C963.637512,144.833130 952.766235,148.147842 941.901062,144.551712
	C933.423462,141.745773 928.828491,134.257950 928.873718,122.762619
	C950.754395,122.762619 972.644653,122.762619 995.237976,122.762619
	C994.812195,117.562004 994.671204,112.931458 994.022339,108.373207
	C988.725769,71.163742 952.167480,60.151783 925.501099,75.725945
	C907.431030,86.279503 899.548889,107.801643 904.971375,131.399948
M1360.053223,110.530922
	C1357.011597,87.096428 1342.611206,71.627083 1321.543701,69.162605
	C1294.688110,66.021042 1270.804565,85.510406 1269.070801,111.981293
	C1267.037476,143.024689 1285.378662,164.014816 1314.915161,164.446838
	C1335.769287,164.751877 1350.716553,155.395721 1357.433594,137.788300
	C1357.861694,136.666031 1358.005493,135.435272 1358.342529,133.995224
	C1351.663940,133.995224 1345.503296,133.871567 1339.355225,134.094162
	C1338.044434,134.141617 1336.343262,135.135147 1335.562256,136.223907
	C1329.546021,144.610916 1318.689453,148.042313 1307.965088,144.727417
	C1299.362549,142.068390 1294.451782,134.322159 1294.378052,122.784500
	C1316.255127,122.784500 1338.135864,122.784500 1360.662842,122.784500
	C1360.468262,118.636612 1360.298828,115.024124 1360.053223,110.530922
M1432.259155,70.071716
	C1430.609741,69.843994 1428.966187,69.552361 1427.309814,69.398689
	C1414.398804,68.200768 1401.967407,69.504074 1391.124268,77.383003
	C1372.221924,91.117928 1366.304565,121.262718 1378.527832,142.218201
	C1389.781372,161.511185 1409.185547,167.293991 1431.283691,163.385178
	C1453.023193,159.539795 1465.543335,144.086182 1467.527466,120.652740
	C1469.630493,95.812248 1456.638306,76.782448 1432.259155,70.071716
M480.713806,111.182602
	C479.878479,121.992065 480.828064,132.595779 486.378693,142.107498
	C497.676483,161.467758 516.912659,167.260880 539.072388,163.426056
	C561.435913,159.555923 574.284729,143.108597 575.521973,118.796028
	C576.880737,92.095627 560.630554,72.391289 534.720520,69.321922
	C505.720428,65.886482 483.224609,82.989868 480.713806,111.182602
M1037.097412,79.365852
	C1034.926270,76.744690 1032.963379,72.113045 1030.546753,71.862656
	C1021.742493,70.950478 1012.786560,71.502327 1002.970886,71.502327
	C1013.445374,86.425041 1023.269714,100.421585 1033.146973,114.493469
	C1022.221619,130.221069 1011.393005,145.809433 1000.141602,162.006409
	C1009.271606,162.006409 1017.272095,162.174561 1025.254883,161.873138
	C1026.977051,161.808121 1029.200684,160.453110 1030.229858,159.006744
	C1036.096924,150.761856 1041.672363,142.309357 1047.590576,133.567383
	C1053.483032,142.285217 1059.094360,150.721802 1064.893555,159.027206
	C1065.800293,160.325867 1067.537476,161.831436 1068.932373,161.874023
	C1077.516724,162.136032 1086.113159,162.005432 1095.563843,162.005432
	C1094.175415,160.022644 1093.267944,158.715088 1092.348877,157.415619
	C1083.029175,144.238098 1073.775146,131.013260 1064.332031,117.924698
	C1062.338257,115.161270 1061.951782,113.247841 1064.187012,110.237282
	C1072.517334,99.017738 1080.491821,87.533958 1088.582886,76.137184
	C1089.491455,74.857597 1090.291138,73.500885 1091.593262,71.477600
	C1083.161743,71.477600 1075.548706,71.633835 1067.947388,71.401360
	C1064.869629,71.307213 1063.159668,72.438393 1061.554932,74.941650
	C1057.277222,81.614609 1052.713867,88.104584 1047.929810,95.160248
	C1044.211792,89.728256 1040.866089,84.840302 1037.097412,79.365852
M862.383484,120.499817
	C862.383484,134.265549 862.383484,148.031281 862.383484,161.787720
	C871.132751,161.787720 879.241943,161.787720 887.572327,161.787720
	C887.572327,120.181747 887.572327,78.801613 887.572327,37.303902
	C879.122192,37.303902 870.914734,37.303902 862.383545,37.303902
	C862.383545,64.913277 862.383545,92.206543 862.383484,120.499817
M1618.759644,109.500092
	C1618.759644,85.410133 1618.759644,61.320171 1618.759644,37.200645
	C1610.013672,37.200645 1601.905640,37.200645 1593.555786,37.200645
	C1593.555786,78.803062 1593.555786,120.192329 1593.555786,161.699890
	C1602.014160,161.699890 1610.228271,161.699890 1618.759644,161.699890
	C1618.759644,144.425598 1618.759644,127.462852 1618.759644,109.500092
M125.035370,96.493370
	C126.074730,95.659950 127.176491,94.892632 128.142090,93.981079
	C131.406509,90.899384 134.496445,90.757645 138.036194,93.797363
	C141.690125,96.935120 145.710785,99.646179 149.574753,102.538918
	C183.952118,128.275269 218.327438,154.014374 252.725800,179.722610
	C253.537827,180.329483 254.611084,180.586823 255.562500,181.007202
	C254.267944,178.785675 252.631119,177.147934 250.859421,175.672104
	C225.654358,154.676132 200.476135,133.647537 175.191116,112.748161
	C164.287155,103.735497 153.132492,95.026688 142.131790,86.130287
	C136.046021,81.208649 130.037125,81.350243 124.008018,86.146866
	C120.360374,89.048851 116.757690,92.007538 113.100060,94.896759
	C105.974251,100.525536 98.824013,106.123390 91.340034,112.004257
	C89.808784,100.830673 87.892586,96.872528 73.890625,97.009201
	C69.064957,97.056297 64.239525,97.127388 59.413948,97.184509
	C48.387501,97.315041 44.778835,100.832993 44.493225,111.856255
	C44.428612,114.349976 44.561466,116.851730 44.674385,119.346581
	C45.035748,127.330467 45.807137,135.322006 45.613499,143.290985
	C45.543125,146.187164 43.900372,149.775742 41.774242,151.764969
	C32.535320,160.409058 22.842503,168.567291 13.346199,176.937881
	C12.132790,178.007431 11.104751,179.287308 9.990837,180.469742
	C10.322436,180.837479 10.654036,181.205215 10.985636,181.572952
	C12.320189,180.777863 13.703912,180.054321 14.981440,179.176270
	C24.447662,172.670120 33.649994,165.738739 43.419125,159.727310
	C51.658733,154.657089 54.872311,147.888535 54.266796,138.476776
	C53.689846,129.508926 53.700657,120.499626 53.602787,111.506920
	C53.576118,109.056824 53.578571,106.232941 57.287464,106.214737
	C64.277466,106.180443 71.273193,106.006653 78.252129,106.271233
	C79.457993,106.316948 81.483719,108.145927 81.606728,109.311974
	C82.152840,114.489113 82.905525,119.666725 76.966660,123.157158
	C73.991692,124.905640 70.941879,127.984489 72.783646,134.118576
	C77.233437,131.855560 81.621574,130.364853 85.127327,127.709274
	C98.398811,117.656258 111.384201,107.225555 125.035370,96.493370
M188.081177,153.367508
	C201.854340,162.923630 215.627487,172.479767 229.400650,182.035889
	C229.725616,181.644882 230.050583,181.253891 230.375549,180.862900
	C229.418350,179.842972 228.568741,178.688797 227.488251,177.822693
	C198.792633,154.821182 170.112350,131.800140 141.328323,108.909615
	C134.729813,103.662140 130.500519,104.015526 123.889503,109.283127
	C114.774933,116.545540 105.626312,123.765610 96.456238,130.957870
	C78.769768,144.829666 61.021099,158.622543 43.391407,172.565979
	C40.273106,175.032257 36.778694,177.597763 37.350285,182.687149
	C44.315655,183.751419 48.982208,179.806992 53.641987,176.155563
	C78.805450,156.437317 103.928307,136.667007 129.000671,116.833122
	C131.715775,114.685318 133.656738,113.629753 137.075928,116.185005
	C153.736588,128.635956 170.649719,140.749100 188.081177,153.367508
M52.507690,48.064758
	C48.253460,52.893345 48.181313,58.258228 50.620659,63.852737
	C51.744942,66.431221 53.133465,68.894249 54.395634,71.412910
	C55.584618,73.785530 56.813316,75.810364 54.154762,78.482544
	C53.237419,79.404594 54.383987,82.924896 55.370430,84.859169
	C55.660728,85.428398 59.054665,85.225891 60.304768,84.348785
	C64.798607,81.195831 66.051926,76.948013 64.260750,71.644272
	C63.314529,68.842453 61.909248,66.178978 60.548428,63.536896
	C55.867424,54.448528 56.826038,51.830605 66.413429,47.730999
	C68.484543,46.845375 70.500389,45.830479 72.541687,44.875126
	C65.256203,42.349575 58.849686,43.238888 52.507690,48.064758
M85.534981,70.377480
	C82.974846,67.933167 80.499481,65.390205 77.818558,63.086456
	C76.492203,61.946705 73.502197,61.255028 73.496994,60.347816
	C73.482025,57.739807 72.209366,57.100243 70.626259,58.131084
	C69.495903,58.867111 68.499184,61.205772 68.826981,62.470573
	C69.378891,64.600113 70.605171,66.998802 72.302338,68.300407
	C76.579796,71.580894 77.374481,74.562904 73.429008,78.715530
	C72.522118,79.670036 72.698914,83.429764 73.085785,83.546349
	C75.395950,84.242477 79.059181,85.381447 80.149406,84.278076
	C83.569450,80.816788 86.844063,76.747772 85.534981,70.377480
z"/>
<path fill="#141414" opacity="1.000000" stroke="none"
	d="
M732.677856,94.609360
	C732.756897,117.180618 732.756897,139.312836 732.756897,161.725082
	C724.760376,161.725082 716.674622,161.725082 708.187561,161.725082
	C708.109863,160.415009 707.953308,158.988251 707.951660,157.561310
	C707.933838,142.231735 707.975220,126.901978 707.911926,111.572639
	C707.898865,108.419159 707.728638,105.236526 707.270508,102.120323
	C705.975830,93.314499 702.403992,89.604378 694.946045,88.962410
	C685.750977,88.170898 679.536011,91.680344 677.212769,99.921494
	C675.970459,104.328224 675.702087,109.109718 675.640991,113.730637
	C675.451721,128.057983 675.572205,142.389404 675.572449,156.719254
	C675.572449,158.347687 675.572449,159.976120 675.572449,161.802612
	C666.998352,161.802612 658.893372,161.802612 650.184387,161.802612
	C650.184387,158.632217 650.188599,155.526093 650.183716,152.419952
	C650.159546,137.090759 650.295776,121.759026 650.056824,106.433159
	C649.858948,93.742691 645.627197,88.948967 635.337280,88.874504
	C625.704041,88.804794 618.308105,96.216209 618.103210,107.017548
	C617.793640,123.341148 617.980713,139.674179 617.957336,156.003189
	C617.954773,157.812134 617.957031,159.621063 617.957031,161.712860
	C609.474915,161.712860 601.259888,161.712860 592.886719,161.712860
	C592.886719,131.737610 592.886719,101.962639 592.886719,71.834351
	C600.595642,71.834351 608.163391,71.834351 616.270020,71.834351
	C616.270020,75.318054 616.270020,78.896767 616.270020,84.157097
	C624.196289,73.948486 633.347473,69.044167 644.795593,69.010338
	C656.187195,68.976669 665.752319,72.474007 671.756836,83.912544
	C680.430542,71.962662 692.103699,67.584274 706.262207,69.320869
	C721.544434,71.195282 729.306274,78.469727 732.677856,94.609360
z"/>
<path fill="#131313" opacity="1.000000" stroke="none"
	d="
M429.626892,135.662521
	C436.097290,129.722687 438.522552,122.184303 439.968628,114.173203
	C448.976196,114.173203 457.764587,114.173203 466.558685,114.173203
	C465.482056,142.857880 442.714050,164.658722 414.166046,165.070419
	C391.320618,165.399887 372.392639,158.088882 359.276978,138.620972
	C341.958801,112.915230 342.364136,58.653858 383.771423,39.507957
	C406.292114,29.094849 440.300110,31.799904 457.318604,55.867489
	C462.150024,62.700092 464.634125,70.318993 465.728027,78.760666
	C456.875214,78.760666 448.100525,78.760666 440.113434,78.760666
	C437.078125,74.077530 434.944946,68.961266 431.277557,65.445244
	C415.777710,50.585117 389.740326,56.291512 381.099457,76.557762
	C374.557373,91.901566 374.541168,107.822205 381.177948,123.159470
	C389.390808,142.138885 412.896667,148.097946 429.626892,135.662521
z"/>
<path fill="#131313" opacity="1.000000" stroke="none"
	d="
M1185.162720,148.992798
	C1185.162964,153.470245 1185.162964,157.448746 1185.162964,161.714645
	C1175.881714,161.714645 1166.817749,161.714645 1157.490234,161.714645
	C1157.490234,120.237839 1157.490234,78.857903 1157.490234,37.631737
	C1157.792236,37.374382 1157.914429,37.179314 1158.034546,37.180656
	C1180.497437,37.431709 1203.022339,36.758209 1225.404419,38.240784
	C1245.431885,39.567387 1258.073242,55.472771 1258.476807,76.595520
	C1258.872070,97.280891 1246.247437,113.041481 1226.424072,116.009422
	C1220.041992,116.964943 1213.498413,116.968208 1207.021851,117.131584
	C1199.909912,117.310982 1192.789795,117.172447 1185.162476,117.172447
	C1185.162476,127.937408 1185.162476,138.215637 1185.162720,148.992798
M1223.817993,92.509315
	C1231.593872,87.680580 1232.183594,80.174377 1230.903320,72.308411
	C1229.701660,64.924179 1224.861816,60.198936 1217.586060,59.445549
	C1206.953491,58.344597 1196.218750,58.230503 1185.462646,57.692524
	C1185.462646,71.041801 1185.462646,83.254349 1185.462646,95.838173
	C1192.225586,95.838173 1198.708374,96.218437 1205.124756,95.727966
	C1211.174072,95.265564 1217.153076,93.886284 1223.817993,92.509315
z"/>
<path fill="#141414" opacity="1.000000" stroke="none"
	d="
M753.046814,73.439072
	C753.604675,72.493698 754.148376,71.593483 754.703613,71.586296
	C762.007263,71.491936 769.312622,71.523499 777.033142,71.523499
	C777.033142,75.285614 777.033142,78.679054 777.033142,82.473389
	C793.786926,66.063309 813.632568,64.421638 830.524109,77.717285
	C837.168274,82.947044 841.362427,89.969528 843.726807,97.878708
	C847.318665,109.894318 847.790649,122.147964 844.412109,134.347885
	C835.761841,165.583984 801.831360,174.762939 778.431396,151.511154
	C778.431396,165.901276 778.431396,179.740631 778.431396,193.787384
	C769.764465,193.787384 761.669312,193.787384 753.038025,193.787384
	C753.038025,153.770706 753.038025,113.835030 753.046814,73.439072
M815.755920,95.870354
	C807.992981,84.564934 787.908508,84.502670 781.442627,98.158142
	C775.735474,110.211357 775.637756,122.731560 781.247375,134.853058
	C784.798157,142.525803 791.584656,145.900162 799.961487,145.735672
	C808.348511,145.570999 814.948853,142.044189 818.015747,133.991547
	C822.841431,121.321098 823.051636,108.685341 815.755920,95.870354
z"/>
<path fill="#131313" opacity="1.000000" stroke="none"
	d="
M1506.492676,71.526276
	C1507.479004,75.022934 1508.009766,78.488937 1508.600952,82.348763
	C1513.328125,76.319359 1519.095459,71.690086 1526.871216,70.034439
	C1548.320190,65.467422 1567.094238,75.858093 1574.200195,96.703857
	C1578.731812,109.997818 1578.954346,123.607780 1574.618896,136.955872
	C1563.931030,169.861526 1524.649292,172.089478 1509.392822,151.312317
	C1509.392822,165.763245 1509.392822,179.614243 1509.392822,193.732117
	C1500.852905,193.732117 1492.755493,193.732117 1484.326172,193.732117
	C1484.326172,153.257065 1484.326172,112.681541 1484.326172,71.495628
	C1491.484741,71.495628 1498.760986,71.495628 1506.492676,71.526276
M1540.800049,90.449966
	C1529.095459,84.939087 1517.405029,87.810806 1512.398926,98.221748
	C1506.619263,110.241005 1506.628174,122.792473 1512.221191,134.898392
	C1515.766846,142.572693 1522.589600,145.915192 1530.964722,145.734818
	C1539.352783,145.554184 1545.655029,141.899353 1549.058594,133.977234
	C1552.879883,125.082664 1552.904541,115.866425 1551.149658,106.543724
	C1549.933472,100.082108 1546.958862,94.672020 1540.800049,90.449966
z"/>
<path fill="#141414" opacity="1.000000" stroke="none"
	d="
M1634.108887,116.098419
	C1635.702881,90.942184 1649.244385,74.529060 1671.828003,69.936134
	C1697.783569,64.657478 1720.946411,80.770515 1724.844727,106.961128
	C1725.594116,111.995689 1725.735718,117.120697 1726.207153,122.797745
	C1703.528687,122.797745 1681.637817,122.797745 1659.743164,122.797745
	C1659.979736,134.804199 1664.612427,142.090149 1673.373047,144.757950
	C1684.148682,148.039337 1694.709351,144.677002 1700.918701,136.111084
	C1701.586670,135.189651 1702.824585,134.118942 1703.824707,134.091705
	C1710.427612,133.911835 1717.037720,133.998749 1723.739014,133.998749
	C1719.336426,151.086929 1704.835205,162.845886 1687.809814,164.115814
	C1674.961548,165.074188 1662.751587,163.545074 1652.191772,155.792007
	C1639.063965,146.153534 1634.321777,132.321320 1634.108887,116.098419
M1687.275146,88.852051
	C1672.482178,84.795105 1660.400269,92.652252 1659.880981,106.703949
	C1673.249268,106.703949 1686.614136,106.703949 1700.008057,106.703949
	C1698.965942,97.338951 1695.412964,92.149162 1687.275146,88.852051
z"/>
<path fill="#141414" opacity="1.000000" stroke="none"
	d="
M904.891357,130.994324
	C899.548889,107.801643 907.431030,86.279503 925.501099,75.725945
	C952.167480,60.151783 988.725769,71.163742 994.022339,108.373207
	C994.671204,112.931458 994.812195,117.562004 995.237976,122.762619
	C972.644653,122.762619 950.754395,122.762619 928.873718,122.762619
	C928.828491,134.257950 933.423462,141.745773 941.901062,144.551712
	C952.766235,148.147842 963.637512,144.833130 969.949707,136.165054
	C970.682678,135.158539 972.157043,134.127106 973.318237,134.091080
	C979.762329,133.891037 986.215942,133.995163 993.178589,133.995163
	C988.457825,147.549423 980.802734,157.842056 967.067078,161.858444
	C949.910950,166.874969 933.405029,165.463547 918.893372,153.951721
	C911.628052,148.188324 907.463196,140.245651 904.891357,130.994324
M962.415039,106.998650
	C964.562561,106.998650 966.710144,106.998650 968.863037,106.998650
	C968.536255,94.507401 961.003601,87.625214 948.230713,87.887001
	C936.884705,88.119537 928.862671,96.011703 929.080566,106.998650
	C939.859619,106.998650 950.646118,106.998650 962.415039,106.998650
z"/>
<path fill="#141414" opacity="1.000000" stroke="none"
	d="
M1360.091309,110.971283
	C1360.298828,115.024124 1360.468262,118.636612 1360.662842,122.784500
	C1338.135864,122.784500 1316.255127,122.784500 1294.378052,122.784500
	C1294.451782,134.322159 1299.362549,142.068390 1307.965088,144.727417
	C1318.689453,148.042313 1329.546021,144.610916 1335.562256,136.223907
	C1336.343262,135.135147 1338.044434,134.141617 1339.355225,134.094162
	C1345.503296,133.871567 1351.663940,133.995224 1358.342529,133.995224
	C1358.005493,135.435272 1357.861694,136.666031 1357.433594,137.788300
	C1350.716553,155.395721 1335.769287,164.751877 1314.915161,164.446838
	C1285.378662,164.014816 1267.037476,143.024689 1269.070801,111.981293
	C1270.804565,85.510406 1294.688110,66.021042 1321.543701,69.162605
	C1342.611206,71.627083 1357.011597,87.096428 1360.091309,110.971283
M1331.196655,106.999443
	C1332.419922,106.912750 1333.643311,106.826057 1334.902832,106.736786
	C1332.178345,92.330513 1326.001831,87.247231 1312.468018,87.939644
	C1302.346313,88.457474 1295.401733,95.678383 1294.400269,106.999451
	C1306.370117,106.999451 1318.315796,106.999451 1331.196655,106.999443
z"/>
<path fill="#141414" opacity="1.000000" stroke="none"
	d="
M1432.675781,70.143715
	C1456.638306,76.782448 1469.630493,95.812248 1467.527466,120.652740
	C1465.543335,144.086182 1453.023193,159.539795 1431.283691,163.385178
	C1409.185547,167.293991 1389.781372,161.511185 1378.527832,142.218201
	C1366.304565,121.262718 1372.221924,91.117928 1391.124268,77.383003
	C1401.967407,69.504074 1414.398804,68.200768 1427.309814,69.398689
	C1428.966187,69.552361 1430.609741,69.843994 1432.675781,70.143715
M1398.564209,107.361313
	C1399.022217,115.423615 1398.508789,123.695740 1400.192627,131.493332
	C1402.148315,140.549652 1410.088989,145.709152 1418.931274,145.825272
	C1429.486450,145.963867 1436.799927,141.184662 1440.030762,131.663406
	C1443.342041,121.904823 1443.157227,112.017860 1440.164795,102.216537
	C1438.496582,96.752235 1435.208496,92.520790 1429.920898,89.947899
	C1416.097412,83.221642 1402.269775,90.559349 1398.564209,107.361313
z"/>
<path fill="#131313" opacity="1.000000" stroke="none"
	d="
M480.764648,110.744034
	C483.224609,82.989868 505.720428,65.886482 534.720520,69.321922
	C560.630554,72.391289 576.880737,92.095627 575.521973,118.796028
	C574.284729,143.108597 561.435913,159.555923 539.072388,163.426056
	C516.912659,167.260880 497.676483,161.467758 486.378693,142.107498
	C480.828064,132.595779 479.878479,121.992065 480.764648,110.744034
M532.820251,88.168442
	C519.179016,86.790932 510.987915,91.417000 507.571014,103.007301
	C504.781219,112.470520 504.832733,122.097557 507.904480,131.532684
	C510.804840,140.441345 517.965454,145.701721 526.851135,145.827087
	C537.375793,145.975555 544.681030,141.137482 547.990112,131.671036
	C551.048828,122.920662 550.891052,113.977234 548.942383,105.070076
	C547.098022,96.639374 542.294800,90.679939 532.820251,88.168442
z"/>
<path fill="#141414" opacity="1.000000" stroke="none"
	d="
M1037.308838,79.659103
	C1040.866089,84.840302 1044.211792,89.728256 1047.929810,95.160248
	C1052.713867,88.104584 1057.277222,81.614609 1061.554932,74.941650
	C1063.159668,72.438393 1064.869629,71.307213 1067.947388,71.401360
	C1075.548706,71.633835 1083.161743,71.477600 1091.593262,71.477600
	C1090.291138,73.500885 1089.491455,74.857597 1088.582886,76.137184
	C1080.491821,87.533958 1072.517334,99.017738 1064.187012,110.237282
	C1061.951782,113.247841 1062.338257,115.161270 1064.332031,117.924698
	C1073.775146,131.013260 1083.029175,144.238098 1092.348877,157.415619
	C1093.267944,158.715088 1094.175415,160.022644 1095.563843,162.005432
	C1086.113159,162.005432 1077.516724,162.136032 1068.932373,161.874023
	C1067.537476,161.831436 1065.800293,160.325867 1064.893555,159.027206
	C1059.094360,150.721802 1053.483032,142.285217 1047.590576,133.567383
	C1041.672363,142.309357 1036.096924,150.761856 1030.229858,159.006744
	C1029.200684,160.453110 1026.977051,161.808121 1025.254883,161.873138
	C1017.272095,162.174561 1009.271606,162.006409 1000.141602,162.006409
	C1011.393005,145.809433 1022.221619,130.221069 1033.146973,114.493469
	C1023.269714,100.421585 1013.445374,86.425041 1002.970886,71.502327
	C1012.786560,71.502327 1021.742493,70.950478 1030.546753,71.862656
	C1032.963379,72.113045 1034.926270,76.744690 1037.308838,79.659103
z"/>
<path fill="#181818" opacity="1.000000" stroke="none"
	d="
M862.383545,119.999817
	C862.383545,92.206543 862.383545,64.913277 862.383545,37.303902
	C870.914734,37.303902 879.122192,37.303902 887.572327,37.303902
	C887.572327,78.801613 887.572327,120.181747 887.572327,161.787720
	C879.241943,161.787720 871.132751,161.787720 862.383484,161.787720
	C862.383484,148.031281 862.383484,134.265549 862.383545,119.999817
z"/>
<path fill="#181818" opacity="1.000000" stroke="none"
	d="
M1618.759644,110.000099
	C1618.759644,127.462852 1618.759644,144.425598 1618.759644,161.699890
	C1610.228271,161.699890 1602.014160,161.699890 1593.555786,161.699890
	C1593.555786,120.192329 1593.555786,78.803062 1593.555786,37.200645
	C1601.905640,37.200645 1610.013672,37.200645 1618.759644,37.200645
	C1618.759644,61.320171 1618.759644,85.410133 1618.759644,110.000099
z"/>
<path fill="#191919" opacity="1.000000" stroke="none"
	d="
M124.755997,96.714760
	C111.384201,107.225555 98.398811,117.656258 85.127327,127.709274
	C81.621574,130.364853 77.233437,131.855560 72.783646,134.118576
	C70.941879,127.984489 73.991692,124.905640 76.966660,123.157158
	C82.905525,119.666725 82.152840,114.489113 81.606728,109.311974
	C81.483719,108.145927 79.457993,106.316948 78.252129,106.271233
	C71.273193,106.006653 64.277466,106.180443 57.287464,106.214737
	C53.578571,106.232941 53.576118,109.056824 53.602787,111.506920
	C53.700657,120.499626 53.689846,129.508926 54.266796,138.476776
	C54.872311,147.888535 51.658733,154.657089 43.419125,159.727310
	C33.649994,165.738739 24.447662,172.670120 14.981440,179.176270
	C13.703912,180.054321 12.320189,180.777863 10.985636,181.572952
	C10.654036,181.205215 10.322436,180.837479 9.990837,180.469742
	C11.104751,179.287308 12.132790,178.007431 13.346199,176.937881
	C22.842503,168.567291 32.535320,160.409058 41.774242,151.764969
	C43.900372,149.775742 45.543125,146.187164 45.613499,143.290985
	C45.807137,135.322006 45.035748,127.330467 44.674385,119.346581
	C44.561466,116.851730 44.428612,114.349976 44.493225,111.856255
	C44.778835,100.832993 48.387501,97.315041 59.413948,97.184509
	C64.239525,97.127388 69.064957,97.056297 73.890625,97.009201
	C87.892586,96.872528 89.808784,100.830673 91.340034,112.004257
	C98.824013,106.123390 105.974251,100.525536 113.100060,94.896759
	C116.757690,92.007538 120.360374,89.048851 124.008018,86.146866
	C130.037125,81.350243 136.046021,81.208649 142.131790,86.130287
	C153.132492,95.026688 164.287155,103.735497 175.191116,112.748161
	C200.476135,133.647537 225.654358,154.676132 250.859421,175.672104
	C252.631119,177.147934 254.267944,178.785675 255.562500,181.007202
	C254.611084,180.586823 253.537827,180.329483 252.725800,179.722610
	C218.327438,154.014374 183.952118,128.275269 149.574753,102.538918
	C145.710785,99.646179 141.690125,96.935120 138.036194,93.797363
	C134.496445,90.757645 131.406509,90.899384 128.142090,93.981079
	C127.176491,94.892632 126.074730,95.659950 124.755997,96.714760
z"/>
<path fill="#191919" opacity="1.000000" stroke="none"
	d="
M187.777344,153.174637
	C170.649719,140.749100 153.736588,128.635956 137.075928,116.185005
	C133.656738,113.629753 131.715775,114.685318 129.000671,116.833122
	C103.928307,136.667007 78.805450,156.437317 53.641987,176.155563
	C48.982208,179.806992 44.315655,183.751419 37.350285,182.687149
	C36.778694,177.597763 40.273106,175.032257 43.391407,172.565979
	C61.021099,158.622543 78.769768,144.829666 96.456238,130.957870
	C105.626312,123.765610 114.774933,116.545540 123.889503,109.283127
	C130.500519,104.015526 134.729813,103.662140 141.328323,108.909615
	C170.112350,131.800140 198.792633,154.821182 227.488251,177.822693
	C228.568741,178.688797 229.418350,179.842972 230.375549,180.862900
	C230.050583,181.253891 229.725616,181.644882 229.400650,182.035889
	C215.627487,172.479767 201.854340,162.923630 187.777344,153.174637
z"/>
<path fill="#1C1C1C" opacity="1.000000" stroke="none"
	d="
M52.786335,47.814056
	C58.849686,43.238888 65.256203,42.349575 72.541687,44.875126
	C70.500389,45.830479 68.484543,46.845375 66.413429,47.730999
	C56.826038,51.830605 55.867424,54.448528 60.548428,63.536896
	C61.909248,66.178978 63.314529,68.842453 64.260750,71.644272
	C66.051926,76.948013 64.798607,81.195831 60.304768,84.348785
	C59.054665,85.225891 55.660728,85.428398 55.370430,84.859169
	C54.383987,82.924896 53.237419,79.404594 54.154762,78.482544
	C56.813316,75.810364 55.584618,73.785530 54.395634,71.412910
	C53.133465,68.894249 51.744942,66.431221 50.620659,63.852737
	C48.181313,58.258228 48.253460,52.893345 52.786335,47.814056
z"/>
<path fill="#1C1C1C" opacity="1.000000" stroke="none"
	d="
M85.660301,70.754585
	C86.844063,76.747772 83.569450,80.816788 80.149406,84.278076
	C79.059181,85.381447 75.395950,84.242477 73.085785,83.546349
	C72.698914,83.429764 72.522118,79.670036 73.429008,78.715530
	C77.374481,74.562904 76.579796,71.580894 72.302338,68.300407
	C70.605171,66.998802 69.378891,64.600113 68.826981,62.470573
	C68.499184,61.205772 69.495903,58.867111 70.626259,58.131084
	C72.209366,57.100243 73.482025,57.739807 73.496994,60.347816
	C73.502197,61.255028 76.492203,61.946705 77.818558,63.086456
	C80.499481,65.390205 82.974846,67.933167 85.660301,70.754585
z"/>
<path fill="#F8F8F8" opacity="1.000000" stroke="none"
	d="
M1223.490479,92.709824
	C1217.153076,93.886284 1211.174072,95.265564 1205.124756,95.727966
	C1198.708374,96.218437 1192.225586,95.838173 1185.462646,95.838173
	C1185.462646,83.254349 1185.462646,71.041801 1185.462646,57.692524
	C1196.218750,58.230503 1206.953491,58.344597 1217.586060,59.445549
	C1224.861816,60.198936 1229.701660,64.924179 1230.903320,72.308411
	C1232.183594,80.174377 1231.593872,87.680580 1223.490479,92.709824
z"/>
<path fill="#FAFAFA" opacity="1.000000" stroke="none"
	d="
M815.941956,96.190170
	C823.051636,108.685341 822.841431,121.321098 818.015747,133.991547
	C814.948853,142.044189 808.348511,145.570999 799.961487,145.735672
	C791.584656,145.900162 784.798157,142.525803 781.247375,134.853058
	C775.637756,122.731560 775.735474,110.211357 781.442627,98.158142
	C787.908508,84.502670 807.992981,84.564934 815.941956,96.190170
z"/>
<path fill="#FAFAFA" opacity="1.000000" stroke="none"
	d="
M1541.108154,90.664108
	C1546.958862,94.672020 1549.933472,100.082108 1551.149658,106.543724
	C1552.904541,115.866425 1552.879883,125.082664 1549.058594,133.977234
	C1545.655029,141.899353 1539.352783,145.554184 1530.964722,145.734818
	C1522.589600,145.915192 1515.766846,142.572693 1512.221191,134.898392
	C1506.628174,122.792473 1506.619263,110.241005 1512.398926,98.221748
	C1517.405029,87.810806 1529.095459,84.939087 1541.108154,90.664108
z"/>
<path fill="#FAFAFA" opacity="1.000000" stroke="none"
	d="
M1687.674561,88.938683
	C1695.412964,92.149162 1698.965942,97.338951 1700.008057,106.703949
	C1686.614136,106.703949 1673.249268,106.703949 1659.880981,106.703949
	C1660.400269,92.652252 1672.482178,84.795105 1687.674561,88.938683
z"/>
<path fill="#FAFAFA" opacity="1.000000" stroke="none"
	d="
M961.923828,106.998650
	C950.646118,106.998650 939.859619,106.998650 929.080566,106.998650
	C928.862671,96.011703 936.884705,88.119537 948.230713,87.887001
	C961.003601,87.625214 968.536255,94.507401 968.863037,106.998650
	C966.710144,106.998650 964.562561,106.998650 961.923828,106.998650
z"/>
<path fill="#F9F9F9" opacity="1.000000" stroke="none"
	d="
M1330.729004,106.999451
	C1318.315796,106.999451 1306.370117,106.999451 1294.400269,106.999451
	C1295.401733,95.678383 1302.346313,88.457474 1312.468018,87.939644
	C1326.001831,87.247231 1332.178345,92.330513 1334.902832,106.736786
	C1333.643311,106.826057 1332.419922,106.912750 1330.729004,106.999451
z"/>
<path fill="#FAFAFA" opacity="1.000000" stroke="none"
	d="
M1398.672363,106.946701
	C1402.269775,90.559349 1416.097412,83.221642 1429.920898,89.947899
	C1435.208496,92.520790 1438.496582,96.752235 1440.164795,102.216537
	C1443.157227,112.017860 1443.342041,121.904823 1440.030762,131.663406
	C1436.799927,141.184662 1429.486450,145.963867 1418.931274,145.825272
	C1410.088989,145.709152 1402.148315,140.549652 1400.192627,131.493332
	C1398.508789,123.695740 1399.022217,115.423615 1398.672363,106.946701
z"/>
<path fill="#FAFAFA" opacity="1.000000" stroke="none"
	d="
M533.232544,88.265831
	C542.294800,90.679939 547.098022,96.639374 548.942383,105.070076
	C550.891052,113.977234 551.048828,122.920662 547.990112,131.671036
	C544.681030,141.137482 537.375793,145.975555 526.851135,145.827087
	C517.965454,145.701721 510.804840,140.441345 507.904480,131.532684
	C504.832733,122.097557 504.781219,112.470520 507.571014,103.007301
	C510.987915,91.417000 519.179016,86.790932 533.232544,88.265831
z"/>
</svg>
